<?xml version="1.0" encoding="windows-1252"?>
<!-- Generator: Adobe Illustrator 16.0.0, SVG Export Plug-In . SVG Version: 6.00 Build 0)  -->
<!DOCTYPE svg PUBLIC "-//W3C//DTD SVG 1.1//EN" "http://www.w3.org/Graphics/SVG/1.1/DTD/svg11.dtd">
<svg version="1.1" id="Layer_1" xmlns="http://www.w3.org/2000/svg" xmlns:xlink="http://www.w3.org/1999/xlink" x="0px" y="0px" width="32px" height="30px" viewBox="0 0 32 30" style="enable-background:new 0 0 32 30;" xml:space="preserve">
<g id="Bubble">
	<g>
		<path style="fill-rule:evenodd;clip-rule:evenodd;fill:#88C057;" d="M16,0C7.163,0,0,5.819,0,12.998    c0,5.072,3.585,9.455,8.802,11.596L7,30l9-4l-0.02-0.006c0.006,0,0.013,0.001,0.02,0.001c8.837,0,16-5.819,16-12.997    C32,5.819,24.837,0,16,0z"/>
	</g>
</g>
<g id="Heart_4_">
	<g>
		<path style="fill-rule:evenodd;clip-rule:evenodd;fill:#FFFFFF;" d="M21,11.729c0-1.507-1.189-2.729-2.656-2.729    c-1.022,0-1.899,0.601-2.344,1.471c-0.444-0.87-1.321-1.471-2.344-1.471c-1.467,0-2.656,1.223-2.656,2.729    c0,0.838,0.376,1.578,0.954,2.079l-0.017,0.008c0,0,3.376,3.711,3.62,3.976s0.641,0.265,0.884,0    c0.244-0.265,3.621-3.976,3.621-3.976l-0.017-0.008C20.624,13.307,21,12.566,21,11.729z"/>
	</g>
</g>
<g>
</g>
<g>
</g>
<g>
</g>
<g>
</g>
<g>
</g>
<g>
</g>
<g>
</g>
<g>
</g>
<g>
</g>
<g>
</g>
<g>
</g>
<g>
</g>
<g>
</g>
<g>
</g>
<g>
</g>
</svg>